<svg width="300" height="300" viewBox="0 0 300 300" fill="none" xmlns="http://www.w3.org/2000/svg">
<path d="M300 150C300 124.361 293.428 99.1497 280.912 76.7733C268.395 54.3969 250.352 35.6023 228.505 22.1837C206.657 8.76505 181.735 1.17042 156.117 0.124792C130.5 -0.920832 105.041 4.61746 82.1731 16.2109L120.082 90.9866C130.169 85.8728 141.398 83.4299 152.698 83.8911C163.998 84.3523 174.991 87.7023 184.628 93.6211C194.265 99.54 202.223 107.83 207.744 117.7C213.265 127.57 216.164 138.691 216.164 150H300Z" fill="#373737"/>
<path d="M91.99 288.329C115.634 298.244 141.425 301.934 166.901 299.045C192.377 296.156 216.687 286.785 237.511 271.827C258.334 256.869 274.976 236.823 285.848 213.603C296.719 190.383 301.458 164.764 299.61 139.191L215.992 145.232C216.807 156.512 214.717 167.813 209.922 178.055C205.126 188.297 197.786 197.139 188.6 203.737C179.415 210.335 168.692 214.468 157.455 215.743C146.218 217.017 134.841 215.389 124.412 211.016L91.99 288.329Z" fill="#87A781"/>
<path d="M82.8488 15.8705C57.0916 28.7658 35.592 48.8045 20.9192 73.5923C6.24641 98.38 -0.978948 126.868 0.106546 155.653C1.19204 184.437 10.5425 212.3 27.0405 235.912C43.5385 259.525 66.4862 277.887 93.1415 288.806L124.92 211.226C113.163 206.41 103.041 198.311 95.7634 187.895C88.4863 177.48 84.3619 165.19 83.883 152.493C83.4042 139.797 86.5913 127.231 93.0634 116.297C99.5354 105.363 109.019 96.5244 120.38 90.8364L82.8488 15.8705Z" fill="#F96B6B"/>
</svg>
